<svg width="73" height="73" viewBox="0 0 73 73" fill="none" xmlns="http://www.w3.org/2000/svg">
<path d="M53.4766 0C64.259 0 73 8.74104 73 19.5234V53.4766C73 64.259 64.259 73 53.4766 73H19.5234C8.74104 73 0 64.259 0 53.4766V19.5234C0 8.74104 8.74104 0 19.5234 0H53.4766ZM21.1914 40.7842C20.8994 41.0767 20.7283 41.4687 20.7109 41.8818L20.2881 51.9277C20.2685 52.3966 20.6434 52.7871 21.1123 52.7871L31.1865 52.7881C31.6309 52.7881 32.0568 52.6084 32.3672 52.29L48.127 36.1211L36.9785 24.9736L21.1914 40.7842ZM45.5645 17.9316C45.135 17.5021 44.439 17.5019 44.0098 17.9316L37.5615 24.3906L48.7021 35.5303L55.082 28.9854C55.5023 28.5542 55.4979 27.8643 55.0723 27.4385L45.5645 17.9316Z" fill="#F3CD03"/>
</svg>
