<svg width="73" height="80" viewBox="0 0 73 80" fill="none" xmlns="http://www.w3.org/2000/svg">
<ellipse cx="20.5714" cy="19.5678" rx="20.5714" ry="19.5678" transform="matrix(-1 0 0 1 57.0715 0.795471)" fill="#F3CD03"/>
<path d="M0.5 58.4059C0.5 56.6926 1.59112 55.1696 3.21334 54.6185L25.8851 46.9165C32.7685 44.578 40.2315 44.578 47.1149 46.9164L69.7867 54.6185C71.4089 55.1696 72.5 56.6926 72.5 58.4059V77.7098C72.5 78.9214 71.4313 79.8548 70.2307 79.6916L40.1356 75.6021C37.7229 75.2742 35.2771 75.2742 32.8644 75.6021L2.7693 79.6916C1.56874 79.8548 0.5 78.9214 0.5 77.7098V58.4059Z" fill="#F3CD03"/>
</svg>
