<svg width="85" height="72" viewBox="0 0 85 72" fill="none" xmlns="http://www.w3.org/2000/svg">
<path d="M48.8916 0C53.9318 0 58.4871 2.94238 60.4727 7.48047L61.7734 10.4541C62.8209 12.8479 65.224 14.4004 67.8828 14.4004C77.0601 14.4004 84.4999 21.6878 84.5 30.6777V51.4287C84.4999 62.7899 75.0979 72 63.5 72H21.5C9.90207 72 0.500075 62.7899 0.5 51.4287V30.6777C0.500134 21.6878 7.9399 14.4004 17.1172 14.4004C19.776 14.4004 22.1791 12.848 23.2266 10.4541L24.5273 7.48047C26.5129 2.94238 31.0682 0 36.1084 0H48.8916ZM42.5 25.2432C34.7423 25.2434 28.3995 31.4119 28.3994 39.0859C28.3996 46.7599 34.7424 52.9285 42.5 52.9287C50.2576 52.9285 56.5994 46.7599 56.5996 39.0859C56.5996 31.4119 50.2577 25.2434 42.5 25.2432ZM42.5 28.2432C48.6595 28.2434 53.5996 33.1268 53.5996 39.0859C53.5994 45.045 48.6594 49.9285 42.5 49.9287C36.3406 49.9285 31.3996 45.045 31.3994 39.0859C31.3995 33.1268 36.3405 28.2434 42.5 28.2432Z" fill="#F3CD03"/>
</svg>
