<svg width="481" height="184" viewBox="0 0 481 184" fill="none" xmlns="http://www.w3.org/2000/svg">
<g clip-path="url(#clip0_46_1781)">
<path d="M19.8696 90.9849L7.58182 86.4572C7.40077 86.3905 7.20063 86.3985 7.02544 86.4793C6.85025 86.5602 6.71434 86.7073 6.64763 86.8884L2.11995 99.1761C2.05324 99.3571 2.06118 99.5573 2.14203 99.7325C2.22288 99.9077 2.37001 100.044 2.55106 100.11L14.8388 104.638C15.0199 104.705 15.22 104.697 15.3952 104.616C15.5704 104.535 15.7063 104.388 15.773 104.207L20.3007 91.9191C20.3674 91.7381 20.3594 91.5379 20.2786 91.3627C20.1977 91.1875 20.0506 91.0516 19.8696 90.9849ZM14.6592 103.021L3.73679 98.9965L7.7614 88.0741L18.6838 92.0987L14.6592 103.021Z" fill="#556B2F"/>
</g>
<path d="M71 3.73333V0H67.2667V1.33333H58.7333V0H55V3.73333H56.3333V12.2667H55V16H58.7333V14.6667H67.2667V16H71V12.2667H69.6667V3.73333H71ZM68.3333 1.06667H69.9333V2.66667H68.3333V1.06667ZM56.0667 2.66667V1.06667H57.6667V2.66667H56.0667ZM57.6667 14.9333H56.0667V13.3333H57.6667V14.9333ZM69.9333 13.3333V14.9333H68.3333V13.3333H69.9333ZM68.6 11.2V12.2667H67.2667V13.6H58.7333V12.2667H57.4V3.73333H58.7333V2.4H67.2667V3.73333H68.6V11.2Z" fill="#364D0E"/>
<path d="M62.4225 5.4455L60.526 10.25H61.5845L61.95 9.324H64.0505L64.416 10.25H65.4745L63.578 5.4455H62.4225ZM62.338 8.3395L63 6.663L63.662 8.3395H62.338Z" fill="#F3CD03"/>
<path d="M422.839 42.5899L424.615 15.4734L446.838 31.1125L422.839 42.5899ZM444.296 30.8837L425.739 17.8243L424.256 40.4679L444.296 30.8837Z" fill="#F3CD03"/>
<g clip-path="url(#clip1_46_1781)">
<path d="M467.795 117.207L471.368 116.041L472.145 118.423L468.572 119.589L469.737 123.163L467.355 123.94L466.189 120.366L462.616 121.532L461.839 119.149L465.412 117.984L464.247 114.41L466.629 113.633L467.795 117.207ZM469.686 131.087L468.521 127.513L470.903 126.736L472.846 132.692L453.787 138.909L448.736 123.423L458.265 120.315L459.042 122.697L451.895 125.028L455.392 135.749L469.686 131.087Z" fill="#556B2F"/>
</g>
<circle cx="332" cy="169" r="12.5" stroke="#F3CD03" stroke-width="5"/>
<defs>
<clipPath id="clip0_46_1781">
<rect width="17.4605" height="17.4605" fill="white" transform="translate(6.03693 84.3373) rotate(20.2274)"/>
</clipPath>
<clipPath id="clip1_46_1781">
<rect width="30.0708" height="30.0708" fill="white" transform="translate(442.831 117.442) rotate(-18.0648)"/>
</clipPath>
</defs>
</svg>
